HIERARCHY
ROOT Hips
{
	OFFSET 	 0.0	 80.0	 0.0
	CHANNELS 6 Xposition Yposition Zposition Xrotation Yrotation Zrotation 
	JOINT Spine
	{
		OFFSET 	 15.3169	 0.0	 -0.012192
		CHANNELS 3 Xrotation Yrotation Zrotation 
		JOINT Spine_1
		{
			OFFSET 	 15.3176	 0.0	 -0.012192
			CHANNELS 3 Xrotation Yrotation Zrotation 
			JOINT Neck
			{
				OFFSET 	 19.9142	 -1e-06	 1.563377
				CHANNELS 3 Xrotation Yrotation Zrotation 
				JOINT Head
				{
					OFFSET 	 6.926521	 0.0	 0.0
					CHANNELS 3 Xrotation Yrotation Zrotation 
					End Site
					{
						OFFSET 	 20.766598	 0.0	 0.0
					}
				}
				JOINT LeftShoulder
				{
					OFFSET 	 -6.201691	 -7.28423	 0.708832
					CHANNELS 3 Xrotation Yrotation Zrotation 
					JOINT LeftArm
					{
						OFFSET 	 14.107998	 1.3e-05	 0.0
						CHANNELS 3 Xrotation Yrotation Zrotation 
						JOINT LeftForeArm
						{
							OFFSET 	 28.5802	 0.0	 0.0
							CHANNELS 3 Xrotation Yrotation Zrotation 
							JOINT LeftHand
							{
								OFFSET 	 27.091896	 0.0	 0.0
								CHANNELS 3 Xrotation Yrotation Zrotation 
								JOINT Bip01_L_Finger0
								{
									OFFSET 	 2.676086	 3.19825	 0.628212
									CHANNELS 3 Xrotation Yrotation Zrotation 
									JOINT Bip01_L_Finger01
									{
										OFFSET 	 2.82782	 0.0	 0.0
										CHANNELS 3 Xrotation Yrotation Zrotation 
										JOINT Bip01_L_Finger02
										{
											OFFSET 	 3.100327	 0.0	 0.0
											CHANNELS 3 Xrotation Yrotation Zrotation 
											End Site
											{
												OFFSET 	 2.683968	 0.0	 0.0
											}
										}
									}
								}
								JOINT Bip01_L_Finger1
								{
									OFFSET 	 9.438972	 2.24244	 -0.203926
									CHANNELS 3 Xrotation Yrotation Zrotation 
									JOINT Bip01_L_Finger11
									{
										OFFSET 	 3.12896	 0.0	 0.0
										CHANNELS 3 Xrotation Yrotation Zrotation 
										JOINT Bip01_L_Finger12
										{
											OFFSET 	 2.379051	 0.0	 0.0
											CHANNELS 3 Xrotation Yrotation Zrotation 
											End Site
											{
												OFFSET 	 2.09993	 0.0	 0.0
											}
										}
									}
								}
								JOINT Bip01_L_Finger2
								{
									OFFSET 	 9.55928	 -0.145352	 -0.186424
									CHANNELS 3 Xrotation Yrotation Zrotation 
									JOINT Bip01_L_Finger21
									{
										OFFSET 	 3.801407	 0.0	 0.0
										CHANNELS 3 Xrotation Yrotation Zrotation 
										JOINT Bip01_L_Finger22
										{
											OFFSET 	 2.848793	 0.0	 0.0
											CHANNELS 3 Xrotation Yrotation Zrotation 
											End Site
											{
												OFFSET 	 2.01886	 0.0	 0.0
											}
										}
									}
								}
								JOINT Bip01_L_Finger3
								{
									OFFSET 	 8.993629	 -2.30169	 0.226974
									CHANNELS 3 Xrotation Yrotation Zrotation 
									JOINT Bip01_L_Finger31
									{
										OFFSET 	 3.369652	 0.0	 0.0
										CHANNELS 3 Xrotation Yrotation Zrotation 
										JOINT Bip01_L_Finger32
										{
											OFFSET 	 2.444229	 0.0	 0.0
											CHANNELS 3 Xrotation Yrotation Zrotation 
											End Site
											{
												OFFSET 	 2.057808	 0.0	 0.0
											}
										}
									}
								}
								JOINT Bip01_L_Finger4
								{
									OFFSET 	 8.023811	 -3.97473	 1.201897
									CHANNELS 3 Xrotation Yrotation Zrotation 
									JOINT Bip01_L_Finger41
									{
										OFFSET 	 2.908783	 0.0	 0.0
										CHANNELS 3 Xrotation Yrotation Zrotation 
										JOINT Bip01_L_Finger42
										{
											OFFSET 	 1.535797	 0.0	 0.0
											CHANNELS 3 Xrotation Yrotation Zrotation 
											End Site
											{
												OFFSET 	 1.630142	 0.0	 0.0
											}
										}
									}
								}
							}
						}
					}
				}
				JOINT RightShoulder
				{
					OFFSET 	 -6.20549	 7.280139	 0.70887
					CHANNELS 3 Xrotation Yrotation Zrotation 
					JOINT RightArm
					{
						OFFSET 	 14.107998	 -1e-05	 0.0
						CHANNELS 3 Xrotation Yrotation Zrotation 
						JOINT RightForeArm
						{
							OFFSET 	 28.5802	 -1.9e-05	 0.0
							CHANNELS 3 Xrotation Yrotation Zrotation 
							JOINT RightHand
							{
								OFFSET 	 27.092003	 0.0	 0.0
								CHANNELS 3 Xrotation Yrotation Zrotation 
								JOINT Bip01_R_Finger0
								{
									OFFSET 	 2.676079	 -3.19825	 0.628212
									CHANNELS 3 Xrotation Yrotation Zrotation 
									JOINT Bip01_R_Finger01
									{
										OFFSET 	 2.82782	 0.0	 0.0
										CHANNELS 3 Xrotation Yrotation Zrotation 
										JOINT Bip01_R_Finger02
										{
											OFFSET 	 3.100342	 0.0	 0.0
											CHANNELS 3 Xrotation Yrotation Zrotation 
											End Site
											{
												OFFSET 	 2.68396	 0.0	 0.0
											}
										}
									}
								}
								JOINT Bip01_R_Finger1
								{
									OFFSET 	 9.438957	 -2.242439	 -0.203918
									CHANNELS 3 Xrotation Yrotation Zrotation 
									JOINT Bip01_R_Finger11
									{
										OFFSET 	 3.12896	 0.0	 0.0
										CHANNELS 3 Xrotation Yrotation Zrotation 
										JOINT Bip01_R_Finger12
										{
											OFFSET 	 2.379051	 0.0	 0.0
											CHANNELS 3 Xrotation Yrotation Zrotation 
											End Site
											{
												OFFSET 	 2.099922	 0.0	 0.0
											}
										}
									}
								}
								JOINT Bip01_R_Finger2
								{
									OFFSET 	 9.559288	 0.145353	 -0.186417
									CHANNELS 3 Xrotation Yrotation Zrotation 
									JOINT Bip01_R_Finger21
									{
										OFFSET 	 3.801407	 0.0	 0.0
										CHANNELS 3 Xrotation Yrotation Zrotation 
										JOINT Bip01_R_Finger22
										{
											OFFSET 	 2.848793	 0.0	 0.0
											CHANNELS 3 Xrotation Yrotation Zrotation 
											End Site
											{
												OFFSET 	 2.01886	 0.0	 0.0
											}
										}
									}
								}
								JOINT Bip01_R_Finger3
								{
									OFFSET 	 8.993629	 2.301691	 0.226974
									CHANNELS 3 Xrotation Yrotation Zrotation 
									JOINT Bip01_R_Finger31
									{
										OFFSET 	 3.369652	 0.0	 0.0
										CHANNELS 3 Xrotation Yrotation Zrotation 
										JOINT Bip01_R_Finger32
										{
											OFFSET 	 2.444221	 0.0	 0.0
											CHANNELS 3 Xrotation Yrotation Zrotation 
											End Site
											{
												OFFSET 	 2.057823	 0.0	 0.0
											}
										}
									}
								}
								JOINT Bip01_R_Finger4
								{
									OFFSET 	 8.023811	 3.97473	 1.20192
									CHANNELS 3 Xrotation Yrotation Zrotation 
									JOINT Bip01_R_Finger41
									{
										OFFSET 	 2.908783	 0.0	 0.0
										CHANNELS 3 Xrotation Yrotation Zrotation 
										JOINT Bip01_R_Finger42
										{
											OFFSET 	 1.535797	 0.0	 0.0
											CHANNELS 3 Xrotation Yrotation Zrotation 
											End Site
											{
												OFFSET 	 1.630142	 0.0	 0.0
											}
										}
									}
								}
							}
						}
					}
				}
			}
		}
	}
	JOINT LeftUpLeg
	{
		OFFSET 	 -12.021299	 -8.83685	 -0.372498
		CHANNELS 3 Xrotation Yrotation Zrotation 
		JOINT LeftLeg
		{
			OFFSET 	 39.9035	 0.0	 0.0
			CHANNELS 3 Xrotation Yrotation Zrotation 
			JOINT LeftFoot
			{
				OFFSET 	 39.6689	 0.0	 0.0
				CHANNELS 3 Xrotation Yrotation Zrotation 
				JOINT Bip01_L_Toe0
				{
					OFFSET 	 10.162399	 -2e-06	 13.629601
					CHANNELS 3 Xrotation Yrotation Zrotation 
					End Site
					{
						OFFSET 	 8.38147	 0.0	 0.0
					}
				}
			}
		}
	}
	JOINT RightUpLeg
	{
		OFFSET 	 -12.021299	 8.836849	 -0.372444
		CHANNELS 3 Xrotation Yrotation Zrotation 
		JOINT RightLeg
		{
			OFFSET 	 39.9035	 0.0	 0.0
			CHANNELS 3 Xrotation Yrotation Zrotation 
			JOINT RightFoot
			{
				OFFSET 	 39.6689	 0.0	 0.0
				CHANNELS 3 Xrotation Yrotation Zrotation 
				JOINT Bip01_R_Toe0
				{
					OFFSET 	 10.162399	 -2e-06	 13.629601
					CHANNELS 3 Xrotation Yrotation Zrotation 
					End Site
					{
						OFFSET 	 8.38147	 0.0	 0.0
					}
				}
			}
		}
	}
}
MOTION
Frames: 7
Frame Time: 0.013889
-40.683201	-2.01187764041	-55.7484618808	-174.513239223	-38.2983359998	-90.041054	-6.478945	3.17285	-1.371199	3e-06	-1e-06	-3.3898800369e-29	6.866208	-24.588991	13.977322	9.935372	4.681794	-11.972721	157.182425	-17.242386	113.387833	25.005644	15.637308	1.639805	1e-06	51.823097	-1.51660665582e-21	-101.380836	61.319275	-4.56183	2e-06	-2e-06	-1e-06	2e-06	0.0	3e-06	2e-06	0.0	3e-06	-1e-06	0.0	3e-06	1e-06	0.0	3e-06	1e-06	0.0	3e-06	1e-06	-1e-06	3e-06	1e-06	2e-06	-4e-06	1e-06	2e-06	-4e-06	2e-06	-2e-06	-1e-06	2e-06	0.0	0.0	2e-06	0.0	0.0	2e-06	-1e-06	2e-06	2e-06	2e-06	-4e-06	2e-06	2e-06	-4e-06	-177.055587	-13.584717	-101.617424	-17.539785	5.454699	2.956816	-1e-06	50.283405	1e-06	127.879623	42.687435	2.214337	-2e-06	1e-06	1e-06	-1e-06	-1e-06	-8.47470009226e-30	-1e-06	-1e-06	-8.47470009226e-30	2e-06	1e-06	-1e-06	2e-06	3e-06	2e-06	2e-06	3e-06	2e-06	-1e-06	1e-06	1e-06	-1e-06	-1e-06	-8.47470009226e-30	-1e-06	-1e-06	-8.47470009226e-30	-2e-06	1e-06	1.69494001845e-29	3e-06	0.0	0.0	3e-06	0.0	0.0	-2e-06	1e-06	1.69494001845e-29	2e-06	1e-06	2e-06	2e-06	1e-06	2e-06	17.065201	-8.40907	-175.68959	3e-06	35.356503	2e-06	24.825314	-2.877635	8.462013	179.999999	-88.799957	179.999987	-6.632731	16.335356	-171.906754	-0.0	19.151798	2e-06	-2.638999	-2.096437	-7.361328	-2e-06	-89.300003	-1e-06	
-41.564606	-1.86198774682	-56.8004943943	-174.333658222	-38.7238430003	-89.848946	-6.612164	3.19364	-1.491342	-3e-06	-1e-06	3.3898800369e-29	6.773814	-24.566996	14.397048	9.823409	4.541077	-11.971823	157.271309	-17.231415	113.411278	25.384619	15.599816	1.766229	-0.0	51.886204	-1e-06	-101.918999	61.227833	-4.063406	1e-06	1e-06	-1e-06	1e-06	0.0	3e-06	1e-06	0.0	3e-06	1e-06	1e-06	-1e-06	3e-06	-1e-06	-2e-06	3e-06	-1e-06	-2e-06	1e-06	2e-06	-1e-06	3e-06	-2e-06	-1e-06	3e-06	-2e-06	-1e-06	-1e-06	3e-06	-1e-06	-1e-06	0.0	-1e-06	-1e-06	0.0	-1e-06	1e-06	1e-06	-2e-06	-1e-06	0.0	1e-06	-1e-06	0.0	1e-06	-176.863503	-13.476532	-101.512657	-17.385393	5.303878	3.062905	-1e-06	50.170902	2e-06	127.204475	42.479046	2.534957	-2e-06	1e-06	1e-06	1e-06	0.0	-1e-06	1e-06	0.0	-1e-06	-2e-06	1e-06	2e-06	2e-06	0.0	-1e-06	2e-06	0.0	-1e-06	-1e-06	1e-06	8.47470009226e-30	3e-06	0.0	0.0	3e-06	0.0	0.0	-2e-06	1e-06	1e-06	1e-06	0.0	-1e-06	1e-06	0.0	-1e-06	-2e-06	1e-06	1.69494001845e-29	1e-06	1e-06	-2e-06	1e-06	1e-06	-2e-06	18.26313	-6.570009	-174.474625	-3e-06	38.124001	2e-06	26.645411	1.112301	5.503936	-179.999999	-88.799957	179.999987	-6.525689	15.643821	-172.091202	-0.0	19.918602	4e-06	-2.719763	-3.059896	-8.00031	-2e-06	-89.300003	-1e-06	
-42.376114	-1.78370270121	-57.8542883263	-174.340990222	-39.2861020004	-89.7785109999	-6.763268	3.320773	-1.651887	-1e-06	-1e-06	-8.47470009226e-30	6.655375	-24.709066	14.761181	9.751708	4.877732	-11.741231	157.3783	-17.228119	113.407135	25.816399	15.566177	1.846585	1e-06	51.935402	5e-06	-102.494225	61.172112	-3.538608	1e-06	1e-06	-1e-06	1e-06	-1e-06	3e-06	1e-06	-1e-06	3e-06	1e-06	1e-06	-1e-06	-0.0	-5e-06	0.0	-0.0	-5e-06	0.0	2e-06	-1e-06	-1e-06	-0.0	-1e-06	-3e-06	-0.0	-1e-06	-3e-06	2e-06	-1e-06	1.69494001845e-29	-0.0	-1e-06	2e-06	-0.0	-1e-06	2e-06	2e-06	-1e-06	2e-06	-0.0	1e-06	1e-06	-0.0	1e-06	1e-06	-176.720892	-13.5616	-101.443886	-17.259666	5.150567	3.163447	-2e-06	50.195698	2e-06	126.879517	41.956989	2.811841	-6e-06	0.0	1e-06	-1e-06	-1e-06	-1e-06	-1e-06	-1e-06	-1e-06	-6e-06	1e-06	1e-06	-1e-06	0.0	1e-06	-1e-06	0.0	1e-06	-6e-06	1e-06	6.77976007381e-29	1e-06	0.0	0.0	1e-06	0.0	0.0	-6e-06	0.0	-1e-06	1e-06	-1e-06	-1e-06	1e-06	-1e-06	-1e-06	-6e-06	0.0	1e-06	-1e-06	0.0	1e-06	-1e-06	0.0	1e-06	18.431587	-4.470692	-173.419907	-3e-06	40.749702	2e-06	28.576893	5.083715	0.931242	-179.999997	-88.799957	179.999995	-7.052236	15.116593	-172.16716	2e-06	20.797398	3e-06	-3.052345	-4.207411	-8.414483	3e-06	-89.300003	3.52611047478e-20	
-43.121006	-1.84708818466	-58.9139673976	-174.350343223	-39.8715319997	-89.762527	-6.869357	3.370814	-1.847246	2e-06	-1e-06	1.69494001845e-29	6.479089	-24.700335	15.030489	9.611361	5.202821	-11.248178	157.498816	-17.243225	113.36647	26.233995	15.536177	1.876414	1e-06	51.975201	3e-06	-103.030602	61.150452	-3.058326	4e-06	2e-06	1e-06	-2e-06	0.0	-3e-06	-2e-06	0.0	-3e-06	4e-06	2e-06	-1e-06	-2e-06	1e-06	-4e-06	-2e-06	1e-06	-4e-06	5e-06	1e-06	-1e-06	1e-06	2e-06	-4e-06	1e-06	2e-06	-4e-06	5e-06	0.0	0.0	1e-06	2e-06	-3e-06	1e-06	2e-06	-3e-06	5e-06	0.0	-2e-06	1e-06	2e-06	0.0	1e-06	2e-06	0.0	-176.665762	-13.497971	-101.458115	-17.389513	5.059992	3.363526	-2e-06	50.261806	2e-06	126.815109	41.554764	2.905754	-0.0	0.0	1e-06	-1e-06	-1e-06	-8.47470009226e-30	-1e-06	-1e-06	-8.47470009226e-30	-0.0	0.0	1e-06	-0.0	-1e-06	1e-06	-0.0	-1e-06	1e-06	1e-06	0.0	0.0	-1e-06	-1e-06	-1e-06	-1e-06	-1e-06	-1e-06	-0.0	0.0	-1e-06	-2e-06	-2e-06	-1e-06	-2e-06	-2e-06	-1e-06	-0.0	0.0	1e-06	-0.0	-1e-06	1e-06	-0.0	-1e-06	1e-06	17.897024	-2.331361	-172.213364	-0.0	43.311607	3e-06	30.429138	7.507084	-6.385351	179.999998	-88.799957	179.999995	-7.563367	14.716319	-172.139114	3e-06	21.904799	1e-06	-3.305704	-5.520112	-9.062625	6e-06	-89.300003	-1e-06	
-43.930005	-1.93677861983	-59.9328423453	-173.890215222	-40.318966	-89.380592	-6.895282	3.115259	-1.914172	6e-06	0.0	0.0	6.240245	-24.694506	15.026488	9.417978	5.412773	-10.806101	157.635635	-17.277069	113.284851	26.635639	15.510477	1.847104	1e-06	52.009098	4e-06	-103.522919	61.172131	-2.628157	-1e-06	0.0	3e-06	1e-06	0.0	2e-06	1e-06	0.0	2e-06	-2e-06	1.69494001845e-29	2e-06	2e-06	-2e-06	-1e-06	2e-06	-2e-06	-1e-06	-1e-06	1e-06	1e-06	2e-06	0.0	0.0	2e-06	0.0	0.0	-1e-06	0.0	3e-06	2e-06	-1.69494001845e-29	2e-06	2e-06	-1.69494001845e-29	2e-06	-1e-06	1.69494001845e-29	4e-06	-1e-06	1.69494001845e-29	4e-06	1e-06	-1.69494001845e-29	4e-06	-176.617594	-13.370514	-101.487366	-17.724419	4.976515	3.653069	-0.0	50.405506	4e-06	127.233818	41.289951	2.677218	1e-06	2e-06	1e-06	1e-06	-1e-06	-2e-06	1e-06	-1e-06	-2e-06	1e-06	1e-06	1e-06	-2e-06	-1e-06	-2e-06	-3e-06	-1e-06	-2e-06	1e-06	1e-06	1e-06	-0.0	-1e-06	-1e-06	-0.0	-1e-06	-1e-06	1e-06	2e-06	2e-06	-0.0	-1e-06	-1e-06	-0.0	-1e-06	-1e-06	1e-06	2e-06	1e-06	-2e-06	0.0	0.0	-2e-06	0.0	0.0	17.077482	-0.690977	-171.382736	-4e-06	46.708694	3e-06	30.616173	7.20242	-10.095324	179.999999	-88.799957	179.999987	-7.47272	13.850579	-172.380463	1e-06	22.813498	1e-06	-2.825751	-6.904935	-9.236131	1e-06	-89.300003	2.59718889809e-20	
-44.733506	-1.95204521726	-60.9701490128	-173.357012223	-40.6441079996	-89.1798930001	-6.856344	2.843682	-1.87598	3e-06	0.0	0.0	6.075061	-24.704268	15.074753	9.189122	5.530141	-10.308694	157.785879	-17.3293	113.16703	27.023411	15.485873	1.767062	2e-06	52.033703	2e-06	-103.980194	61.229183	-2.237249	1e-06	-2e-06	2e-06	1e-06	0.0	0.0	1e-06	0.0	0.0	2e-06	-2e-06	0.0	2e-06	1e-06	-1e-06	2e-06	1e-06	-1e-06	2e-06	-2e-06	0.0	1e-06	0.0	-5e-06	1e-06	0.0	-5e-06	3e-06	-2e-06	1e-06	1e-06	1.69494001845e-29	-4e-06	1e-06	1.69494001845e-29	-4e-06	3e-06	-2e-06	-1e-06	1e-06	0.0	0.0	1e-06	0.0	0.0	-176.539677	-13.26564	-101.530655	-18.123741	4.893584	3.914711	-0.0	50.500496	4e-06	127.47226	40.982639	2.575718	-7e-06	1e-06	-2e-06	-1e-06	-1e-06	-2e-06	-1e-06	-1e-06	-2e-06	-7e-06	0.0	0.0	-0.0	1e-06	2e-06	-1e-06	1e-06	2e-06	-7e-06	0.0	0.0	-0.0	1e-06	2e-06	-1e-06	1e-06	2e-06	-7e-06	1e-06	0.0	-2e-06	1e-06	1.69494001845e-29	-2e-06	1e-06	1.69494001845e-29	-7e-06	1e-06	-1e-06	1e-06	1e-06	2e-06	-1e-06	1e-06	2e-06	16.379475	0.960948	-170.697418	-6e-06	50.651997	3e-06	28.609003	5.164838	-9.422536	-180.0	-88.799957	179.999987	-7.049152	12.623669	-172.363968	1e-06	23.159405	0.0	-2.064565	-8.018821	-9.270596	3e-06	-89.300003	-2e-06	
-45.537506	-1.94209866038	-61.8982892818	-172.819208223	-40.7417979995	-88.9802320001	-6.728286	2.469655	-1.722358	1e-06	0.0	0.0	5.946579	-24.637051	14.895715	8.97453	5.565791	-9.788383	157.937883	-17.407074	113.018982	27.335995	15.456932	1.656769	1e-06	52.043407	-3e-06	-104.346146	61.295826	-1.924977	1e-06	-1e-06	-3e-06	1e-06	-2e-06	0.0	1e-06	-2e-06	0.0	1e-06	-1e-06	-3e-06	1e-06	1e-06	1e-06	1e-06	1e-06	1e-06	-0.0	0.0	-3e-06	2e-06	2e-06	1e-06	2e-06	2e-06	1e-06	-0.0	0.0	-3e-06	2e-06	0.0	3e-06	2e-06	0.0	3e-06	-0.0	0.0	-4e-06	-0.0	0.0	5e-06	2e-06	0.0	5e-06	-176.409008	-13.230896	-101.601288	-18.490671	4.838671	4.058946	-1e-06	50.5452	4e-06	127.897995	40.844555	2.329073	-2e-06	2e-06	1e-06	5e-06	0.0	0.0	2e-06	0.0	0.0	-2e-06	2e-06	0.0	7e-06	0.0	-1e-06	7e-06	0.0	-1e-06	-2e-06	2e-06	1e-06	5e-06	1e-06	1e-06	5e-06	1e-06	1e-06	-2e-06	2e-06	1e-06	5e-06	1e-06	1e-06	5e-06	1e-06	1e-06	-2e-06	2e-06	0.0	7e-06	0.0	-1e-06	7e-06	0.0	-1e-06	15.847113	2.542452	-170.241425	-3e-06	54.024902	5e-06	24.904688	3.325552	-9.309887	-179.999999	-88.79995	179.999987	-6.533597	11.477277	-172.35347	-2e-06	23.522301	1e-06	-1.521337	-9.039722	-9.236807	4e-06	-89.300003	6.82472995118e-20	
